# This file uses centimeters as units for non-parametric coordinates.

mtllib d20_low.mtl
v -1.006159 -1.757010 -3.330827
v 2.916992 -1.663724 -2.062652
v 1.086320 1.788142 3.346692
v -2.836831 1.694856 2.078517
v 2.923777 -1.673058 2.061417
v 3.504176 1.855130 0.006397
v -2.843615 1.704190 -2.045552
v -3.424015 -1.823998 0.009468
v -0.995181 -1.772113 3.342058
v 0.136237 -3.905483 -0.001100
v 1.075342 1.803245 -3.326193
v -0.056075 3.936615 0.016965
vt 0.181818 0.250000
vt 0.363636 0.250000
vt 0.545455 0.250000
vt 0.727273 0.250000
vt 0.909091 0.250000
vt 0.090909 0.416667
vt 0.272727 0.416667
vt 0.454545 0.416667
vt 0.636364 0.416667
vt 0.818182 0.416667
vt 1.000000 0.416667
vt 0.000000 0.583333
vt 0.181818 0.583333
vt 0.363636 0.583333
vt 0.545455 0.583333
vt 0.727273 0.583333
vt 0.909091 0.583333
vt 0.090909 0.750000
vt 0.272727 0.750000
vt 0.454545 0.750000
vt 0.636364 0.750000
vt 0.818182 0.750000
vn 0.206067 -0.788507 -0.579476
vn 0.206067 -0.788507 -0.579476
vn 0.206067 -0.788507 -0.579476
vn 0.306501 -0.177979 -0.935083
vn 0.306501 -0.177979 -0.935083
vn 0.306501 -0.177979 -0.935083
vn -0.790765 -0.205713 -0.576517
vn -0.790765 -0.205713 -0.576517
vn -0.790765 -0.205713 -0.576517
vn -0.309575 0.182208 -0.933254
vn -0.309575 0.182208 -0.933254
vn -0.309575 0.182208 -0.933254
vn -0.472081 -0.805648 -0.357870
vn -0.472081 -0.805648 -0.357870
vn -0.472081 -0.805648 -0.357870
vn 0.986549 -0.163452 -0.001993
vn 0.986549 -0.163452 -0.001993
vn 0.986549 -0.163452 -0.001993
vn 0.626360 -0.779529 -0.002795
vn 0.626360 -0.779529 -0.002795
vn 0.626360 -0.779529 -0.002795
vn 0.788866 0.208327 -0.578179
vn 0.788866 0.208327 -0.578179
vn 0.788866 0.208327 -0.578179
vn -0.306501 0.177979 0.935083
vn -0.306501 0.177979 0.935083
vn -0.306501 0.177979 0.935083
vn -0.206067 0.788507 0.579476
vn -0.206067 0.788507 0.579476
vn -0.206067 0.788507 0.579476
vn 0.790765 0.205713 0.576517
vn 0.790765 0.205713 0.576517
vn 0.790765 0.205713 0.576517
vn 0.309575 -0.182208 0.933254
vn 0.309575 -0.182208 0.933254
vn 0.309575 -0.182208 0.933254
vn 0.472081 0.805648 0.357870
vn 0.472081 0.805648 0.357870
vn 0.472081 0.805648 0.357870
vn -0.986549 0.163452 0.001993
vn -0.986549 0.163452 0.001993
vn -0.986549 0.163452 0.001993
vn -0.626360 0.779529 0.002795
vn -0.626360 0.779529 0.002795
vn -0.626360 0.779529 0.002795
vn -0.788866 -0.208327 0.578179
vn -0.788866 -0.208327 0.578179
vn -0.788866 -0.208327 0.578179
vn 0.207967 -0.791121 0.575220
vn 0.207967 -0.791121 0.575220
vn 0.207967 -0.791121 0.575220
vn 0.470907 0.807263 -0.355771
vn 0.470907 0.807263 -0.355771
vn 0.470907 0.807263 -0.355771
vn -0.207967 0.791121 -0.575220
vn -0.207967 0.791121 -0.575220
vn -0.207967 0.791121 -0.575220
vn -0.470907 -0.807263 0.355771
vn -0.470907 -0.807263 0.355771
vn -0.470907 -0.807263 0.355771
usemtl initialShadingGroup
f 2/17/1 10/22/2 1/16/3
f 1/16/4 11/10/5 2/17/6
f 1/16/7 8/15/8 7/9/9
f 1/16/10 7/9/11 11/10/12
f 1/16/13 10/21/14 8/15/15
f 5/13/16 2/12/17 6/6/18
f 10/18/19 2/12/20 5/13/21
f 2/17/22 11/10/23 6/11/24
f 4/8/25 9/14/26 3/7/27
f 3/7/28 12/2/29 4/8/30
f 5/13/31 6/6/32 3/7/33
f 3/7/34 9/14/35 5/13/36
f 6/6/37 12/1/38 3/7/39
f 7/9/40 8/15/41 4/8/42
f 4/8/43 12/3/44 7/9/45
f 4/8/46 8/15/47 9/14/48
f 5/13/49 9/14/50 10/19/51
f 6/11/52 11/10/53 12/5/54
f 7/9/55 12/4/56 11/10/57
f 8/15/58 10/20/59 9/14/60
