# This file uses centimeters as units for non-parametric coordinates.

mtllib d4_low.mtl
v -2.020562 -2.048846 -3.527021
v -2.020562 -2.048846 3.527019
v 4.088417 -2.048846 -0.000001
v 0.015765 3.710754 -0.000001
vt 0.000000 0.000000
vt 0.500000 0.000000
vt 1.000000 0.000000
vt 0.250000 0.375000
vt 0.750000 0.375000
vt 0.500000 0.750000
vt 0.500000 0.000000
vt 0.250000 0.375000
vt 0.250000 0.375000
vt 0.750000 0.375000
vt 0.750000 0.375000
vt 0.500000 0.000000
vn 0.000000 -1.000000 0.000000
vn 0.000000 -1.000000 0.000000
vn 0.000000 -1.000000 0.000000
vn 0.471405 0.333333 0.816497
vn 0.471405 0.333333 0.816497
vn 0.471405 0.333333 0.816497
vn 0.471405 0.333333 -0.816497
vn 0.471405 0.333333 -0.816497
vn 0.471405 0.333333 -0.816497
vn -0.942809 0.333333 0.000000
vn -0.942809 0.333333 0.000000
vn -0.942809 0.333333 0.000000
usemtl initialShadingGroup
f 3/4/1 2/2/2 1/5/3
f 3/1/4 4/7/5 2/8/6
f 4/9/7 3/10/8 1/6/9
f 2/11/10 4/12/11 1/3/12
